<svg xmlns="http://www.w3.org/2000/svg" width="445" height="150" viewBox="0 0 445 150" role="img" aria-label="Cosmic-Arcade live stats">
  <style>
    text { font-family: 'JetBrains Mono', 'Segoe UI', Ubuntu, monospace; }
    .title { font-size: 15px; font-weight: 600; fill: #FF6B00; }
    .chip { font-size: 10px; font-weight: 600; fill: #FF6B00; letter-spacing: 1px; }
    .desc { font-size: 12px; fill: #ffffff; }
    .legend { font-size: 11px; fill: #AAAAAA; }
    .stats { font-size: 11px; fill: #AAAAAA; }
    .statnum { fill: #ffffff; font-weight: 600; }
  </style>
  <rect width="445" height="150" rx="8" fill="#0d1117" />
  <path transform="translate(20,18)" fill="#FF6B00" d="M2 2.5A2.5 2.5 0 0 1 4.5 0h8.75a.75.75 0 0 1 .75.75v12.5a.75.75 0 0 1-.75.75h-2.5a.75.75 0 0 1 0-1.5h1.75v-2h-8a1 1 0 0 0-.714 1.7.75.75 0 1 1-1.072 1.05A2.495 2.495 0 0 1 2 11.5Zm10.5-1h-8a1 1 0 0 0-1 1v6.708A2.486 2.486 0 0 1 4.5 9h8ZM5 12.25a.25.25 0 0 1 .25-.25h3.5a.25.25 0 0 1 .25.25v3.25a.25.25 0 0 1-.4.2l-1.45-1.087a.249.249 0 0 0-.3 0L5.4 15.7a.25.25 0 0 1-.4-.2Z"/>
  <text x="44" y="31" class="title">Cosmic-Arcade</text>
  <text x="425" y="30" text-anchor="end" class="chip">● LIVE ▸</text>
  <text x="20" y="56" class="desc"><tspan x="20" dy="0">Five classic browser games in vanilla HTML/CSS/JS — Word</tspan><tspan x="20" dy="15">Chain, Sudoku, Card Flip, Gomoku &amp; more</tspan></text>
  <rect x="20.0" y="88" width="313.2" height="8" fill="#e34c26" /><rect x="333.2" y="88" width="73.0" height="8" fill="#f1e05a" /><rect x="406.3" y="88" width="13.4" height="8" fill="#563d7c" /><rect x="419.6" y="88" width="4.9" height="8" fill="#3572A5" /><rect x="424.6" y="88" width="0.4" height="8" fill="#3178c6" /><rect x="424.9" y="88" width="0.1" height="8" fill="#8b949e" />
  <circle cx="24" cy="112" r="4" fill="#e34c26" /><text x="33" y="116" class="legend">HTML 77.3%</text><circle cx="116.0" cy="112" r="4" fill="#f1e05a" /><text x="125.0" y="116" class="legend">JavaScript 18.0%</text><circle cx="245.8" cy="112" r="4" fill="#563d7c" /><text x="254.8" y="116" class="legend">CSS 3.3%</text><circle cx="325.20000000000005" cy="112" r="4" fill="#3572A5" /><text x="334.20000000000005" y="116" class="legend">Python 1.2%</text>
  <text x="20" y="138" class="stats">★ <tspan class="statnum">0</tspan>&#160;&#160;⑂ <tspan class="statnum">0</tspan>&#160;&#160;COMMITS <tspan class="statnum">2932</tspan></text>
  <text x="425" y="138" text-anchor="end" class="stats">UPDATED 2026-06-15</text>
</svg>
